ply
format ascii 1.0
comment PCL generated
element vertex 739
property float x
property float y
property float z
property float nx
property float ny
property float nz
property float curvature
element face 354
property list uchar int vertex_indices
end_header
0.00082095 -0.038585 0.862 0.54855 0.58742 -0.595 0.014076 
0.0073543 -0.048211 0.858 0.53841 0.52429 -0.65972 0.014631 
0.00079905 -0.066321 0.839 0.47595 0.55725 -0.6804 0.027144 
0.00078 -0.0975 0.819 0.55817 0.42878 -0.71035 0.0077481 
0.0023086 -0.11928 0.808 0.58941 0.4658 -0.66002 0.0065153 
0.0069257 -0.12543 0.808 0.56928 0.5025 -0.65071 0.0073762 
0.00076 -0.12996 0.798 0.55739 0.48626 -0.67296 0.0084121 
0.00684 -0.13756 0.798 0.48244 0.51228 -0.71051 0.0070981 
0.0082657 -0.14953 0.789 0.5392 0.45629 -0.70786 0.015755 
0.0097686 -0.15404 0.789 0.58469 0.38836 -0.71226 0.014016 
0.0007419 -0.15803 0.779 0.58187 0.39189 -0.71263 0.0090432 
0.0051933 -0.16841 0.779 0.64316 0.38315 -0.66298 0.0083276 
0.0036571 -0.17774 0.768 0.52886 0.5075 -0.68025 0.011229 
0.0080352 -0.18481 0.767 0.45672 0.42875 -0.77948 0.026814 
0.0021657 -0.19997 0.758 0.49691 0.095322 -0.86255 0.019305 
-0.00082095 -0.040227 0.862 0.55844 0.58214 -0.59098 0.012583 
-0.00077333 -0.11059 0.812 0.5998 0.46813 -0.64892 0.0060163 
-0.00074286 -0.15377 0.78 0.54538 0.45004 -0.70712 0.011272 
-0.00073333 -0.17233 0.77 0.59176 0.43968 -0.67565 0.0035881 
-0.00076571 -0.12022 0.804 0.60092 0.46707 -0.64865 0.0052112 
-0.00082095 -0.038585 0.862 0.55844 0.58215 -0.59097 0.012582 
-0.00080952 -0.054238 0.85 0.55165 0.50278 -0.6655 0.0089773 
-0.00072857 -0.18141 0.765 0.5362 0.5203 -0.66466 0.010543 
-0.00572 -0.038406 0.858 0.55504 0.5694 -0.60639 0.010938 
-0.00081714 -0.043309 0.858 0.57047 0.51616 -0.63886 0.0121 
-0.0072686 -0.049265 0.848 0.572 0.49018 -0.65768 0.0080118 
-0.00078 -0.09906 0.819 0.55829 0.42898 -0.71013 0.0078301 
-0.00078 -0.10062 0.819 0.55822 0.42188 -0.71443 0.0085619 
-0.00075905 -0.13435 0.797 0.53297 0.47894 -0.69754 0.0075074 
-0.010524 -0.041286 0.85 0.61057 0.47991 -0.62999 0.0025834 
-0.010029 -0.10106 0.81 0.6541 0.42198 -0.62776 0.002967 
-0.0069257 -0.1085 0.808 0.64241 0.44143 -0.62645 0.0049129 
-0.00076952 -0.11312 0.808 0.60046 0.47096 -0.64625 0.0053746 
-0.00532 -0.11932 0.798 0.62709 0.4416 -0.64168 0.0059414 
-0.00076 -0.12692 0.798 0.57993 0.46867 -0.66636 0.0076036 
-0.0097686 -0.13 0.789 0.62072 0.34752 -0.70281 0.002409 
-0.0037571 -0.13901 0.789 0.50288 0.48263 -0.71707 0.0057023 
-0.0022543 -0.14352 0.789 0.50414 0.4815 -0.71694 0.0052914 
-0.0066771 -0.14912 0.779 0.5671 0.48231 -0.66766 0.0060198 
-0.0007419 -0.15654 0.779 0.5477 0.4384 -0.71262 0.0092112 
-0.0007381 -0.16017 0.775 0.59508 0.40691 -0.69305 0.0069584 
-0.0065829 -0.16896 0.768 0.59957 0.43123 -0.6742 0.002767 
-0.00073143 -0.17481 0.768 0.59146 0.44496 -0.67245 0.0036068 
-0.0064971 -0.17975 0.758 0.56451 0.43971 -0.69856 0.0030613 
-0.0007219 -0.18986 0.758 0.51694 0.3287 -0.7904 0.015772 
-0.00072 -0.19944 0.756 0.47163 -0.023422 -0.88149 0.016541 
-0.0079095 -0.20924 0.755 0.38765 -0.26318 -0.88344 0.014335 
-0.011457 -0.11075 0.802 0.66742 0.45737 -0.58768 0.0038925 
-0.01009 -0.090814 0.815 0.63695 0.41063 -0.65244 0.0025368 
-0.011329 -0.1231 0.793 0.63411 0.38763 -0.66906 0.0040837 
-0.0112 -0.14112 0.784 0.61572 0.46591 -0.63546 0.0037101 
-0.011029 -0.15514 0.772 0.59589 0.4595 -0.65862 0.0047954 
-0.010004 -0.10389 0.808 0.65078 0.4433 -0.61642 0.002935 
-0.011229 -0.13399 0.786 0.61913 0.37968 -0.6874 0.002968 
-0.019238 -0.088495 0.808 0.66651 0.4249 -0.61256 0.0016148 
-0.011543 -0.099269 0.808 0.65093 0.42787 -0.62707 0.0028792 
-0.01444 -0.10868 0.798 0.66963 0.43604 -0.60123 0.0036315 
-0.0114 -0.11172 0.798 0.66093 0.43773 -0.60956 0.0034734 
-0.01578 -0.11948 0.789 0.63747 0.38285 -0.66863 0.0032315 
-0.011271 -0.12849 0.789 0.62814 0.35002 -0.69493 0.0020203 
-0.020829 -0.082543 0.81 0.66797 0.44685 -0.5951 0.0021885 
-0.01558 -0.13874 0.779 0.60802 0.44643 -0.65651 0.007938 
-0.014096 -0.14319 0.779 0.6181 0.4561 -0.64025 0.0040738 
-0.018286 -0.14994 0.768 0.64408 0.43138 -0.63172 0.002471 
-0.012434 -0.15872 0.768 0.60025 0.43021 -0.67425 0.0026828 
-0.01526 -0.2289 0.763 0.19534 -0.51265 -0.83608 0.011308 
-0.02016 -0.12171 0.784 0.63839 0.35389 -0.68353 0.0012366 
-0.021322 -0.14043 0.772 0.61938 0.48562 -0.61688 0.0058669 
-0.021018 -0.22975 0.761 0.2286 -0.48628 -0.84337 0.0059637 
-0.020674 -0.09112 0.804 0.66814 0.41442 -0.61794 0.0017474 
-0.02077 -0.17403 0.752 0.62073 0.37889 -0.6864 0.0022223 
-0.02019 -0.033112 0.848 0.62532 0.51036 -0.59034 0.0029576 
-0.02106 -0.07098 0.819 0.65219 0.4414 -0.61629 0.0032399 
-0.021129 -0.15081 0.765 0.6596 0.40812 -0.63116 0.0025299 
-0.023421 -0.029882 0.848 0.62173 0.48924 -0.61163 0.0023209 
-0.029565 -0.029565 0.839 0.64672 0.48535 -0.58838 0.0024297 
-0.026369 -0.037555 0.839 0.62247 0.52243 -0.58275 0.0026242 
-0.0273 -0.0585 0.819 0.61921 0.4547 -0.64018 0.0049517 
-0.02262 -0.06786 0.819 0.65123 0.43059 -0.62489 0.0032482 
-0.020659 -0.18166 0.748 0.62611 0.25946 -0.7353 0.0074129 
-0.030866 -0.040363 0.831 0.62493 0.49278 -0.60551 0.0027336 
-0.029937 -0.069853 0.806 0.63616 0.45521 -0.62297 0.0049137 
-0.023855 -0.079261 0.808 0.67076 0.44406 -0.59405 0.0028152 
-0.022316 -0.083878 0.808 0.66447 0.44826 -0.59794 0.0021923 
-0.020494 -0.10095 0.797 0.67599 0.44476 -0.58756 0.003562 
-0.021791 -0.10896 0.789 0.64972 0.41169 -0.63904 0.0030042 
-0.020289 -0.11046 0.789 0.63772 0.42146 -0.64474 0.0033204 
-0.025967 -0.11945 0.779 0.62469 0.29414 -0.72336 0.0032173 
-0.021515 -0.12983 0.779 0.61545 0.39704 -0.68087 0.0080476 
-0.020031 -0.1328 0.779 0.61253 0.40221 -0.68047 0.0088764 
-0.032839 -0.02483 0.841 0.63688 0.50129 -0.58574 0.0017372 
-0.030457 -0.11069 0.78 0.62456 0.38852 -0.67748 0.0036336 
-0.024137 -0.1397 0.768 0.61573 0.48634 -0.61996 0.0084146 
-0.021211 -0.14263 0.768 0.62738 0.47151 -0.61974 0.0060533 
-0.029598 -0.14943 0.758 0.63558 0.42019 -0.64768 0.0037645 
-0.022379 -0.15954 0.758 0.63045 0.41858 -0.6537 0.0015902 
-0.020935 -0.16098 0.758 0.63497 0.42768 -0.64336 0.0010651 
-0.026358 -0.16883 0.748 0.63758 0.37013 -0.67565 0.0018129 
-0.022084 -0.17881 0.748 0.60876 0.32619 -0.7232 0.0034792 
-0.028856 -0.17947 0.739 0.66048 0.19516 -0.72504 0.010661 
-0.027449 -0.18932 0.739 0.552 0.010568 -0.83378 0.016633 
-0.028856 -0.19777 0.739 0.44502 -0.23542 -0.86402 0.013489 
-0.023823 -0.22884 0.758 0.26265 -0.50854 -0.82 0.0056783 
-0.029598 -0.23029 0.758 0.34853 -0.44854 -0.82301 0.010131 
0.00080762 -0.058956 0.848 0.47354 0.5313 -0.70248 0.020696 
-0.024106 -0.23887 0.767 0.31872 -0.28955 -0.90254 0.032082 
0.0056533 -0.065417 0.848 0.39196 0.56216 -0.72825 0.034141 
-0.024137 -0.24649 0.768 0.45478 0.019135 -0.8904 0.044535 
0.0023971 -0.074311 0.839 0.43645 0.59281 -0.67682 0.044336 
-0.029598 -0.25916 0.758 0.53777 0.31597 -0.78164 0.014193 
-0.031124 -0.14404 0.76 0.62125 0.47424 -0.62381 0.0055514 
-0.031089 -0.031089 0.837 0.64654 0.48509 -0.58878 0.0023142 
-0.031615 -0.13455 0.772 0.61616 0.46064 -0.63887 0.0093729 
-0.030387 -0.17031 0.742 0.64529 0.33176 -0.68814 0.002401 
-0.00079333 -0.080127 0.833 0.43195 0.5001 -0.75055 0.044932 
-0.032486 -0.26061 0.758 0.51037 0.28932 -0.80983 0.014402 
-0.0327 -0.2507 0.763 0.54607 0.2472 -0.80043 0.011216 
-0.03077 -0.10131 0.788 0.61049 0.44345 -0.65625 0.0023458 
-0.031472 -0.072924 0.806 0.63915 0.44978 -0.62385 0.003639 
-0.031615 -0.12867 0.772 0.61623 0.41531 -0.66916 0.0092518 
-0.03096 -0.15048 0.756 0.63276 0.41508 -0.6537 0.0038189 
-0.0040381 -0.055726 0.848 0.54857 0.46044 -0.6979 0.010095 
-0.0327 -0.23907 0.763 0.46202 -0.21041 -0.86155 0.028965 
-0.00080476 -0.060357 0.845 0.47296 0.52632 -0.7066 0.022964 
-0.031329 -0.24553 0.765 0.49911 -0.0029486 -0.86653 0.041194 
-0.030418 -0.115 0.779 0.61899 0.36674 -0.69452 0.0034766 
-0.030632 -0.16171 0.748 0.66246 0.38541 -0.64234 0.0016478 
-0.03584 -0.128 0.768 0.64736 0.40731 -0.64422 0.010153 
-0.032914 -0.13093 0.768 0.61171 0.44965 -0.65087 0.0096054 
-0.031042 -0.14655 0.758 0.62703 0.46647 -0.62389 0.0063369 
-0.032057 -0.15886 0.748 0.6439 0.41734 -0.64126 0.0025196 
-0.0087895 -0.059929 0.839 0.64698 0.46533 -0.60405 0.0043929 
-0.039705 -0.23895 0.758 0.53293 -0.055496 -0.84434 0.028461 
-0.00079905 -0.067919 0.839 0.47636 0.55746 -0.67994 0.027404 
-0.036817 -0.24906 0.758 0.54329 0.19201 -0.81729 0.010192 
-0.00079714 -0.07254 0.837 0.45733 0.57947 -0.67458 0.046145 
-0.032486 -0.25916 0.758 0.54401 0.29969 -0.78373 0.011576 
-0.030264 -0.17947 0.739 0.64864 0.18868 -0.73734 0.0108 
-0.031543 -0.18996 0.736 0.60796 -0.050204 -0.79238 0.015513 
-0.031671 -0.19918 0.739 0.40939 -0.27978 -0.8684 0.015036 
-0.037302 -0.2034 0.739 0.36972 -0.4379 -0.81948 0.004284 
-0.04974 -0.019738 0.829 0.62214 0.51421 -0.59036 0.0052377 
-0.041693 -0.20988 0.742 0.30475 -0.50808 -0.80559 0.0021203 
-0.04848 -0.04848 0.808 0.54907 0.48847 -0.67818 0.0033774 
-0.0494 -0.05852 0.798 0.55069 0.47727 -0.6848 0.0042213 
-0.04484 -0.06764 0.798 0.55495 0.47327 -0.68414 0.0033227 
-0.04734 -0.077397 0.789 0.5407 0.48928 -0.68429 0.0026631 
-0.050473 -0.07006 0.791 0.55194 0.47973 -0.68207 0.0038675 
-0.049708 -0.08977 0.779 0.54566 0.46258 -0.69877 0.0036398 
-0.051071 -0.021214 0.825 0.46361 0.62203 -0.63099 0.015633 
-0.051257 -0.083943 0.78 0.46838 0.51591 -0.71726 0.0072681 
-0.046924 -0.11911 0.758 0.65836 0.403 -0.63573 0.006148 
-0.041974 -0.21983 0.747 0.26157 -0.53194 -0.80537 0.0017537 
-0.049154 -0.22582 0.748 0.32381 -0.37943 -0.86671 0.021097 
-0.052067 -0.10047 0.77 0.50458 0.51212 -0.69508 0.0058757 
-0.0093848 -0.21874 0.758 0.21157 -0.46212 -0.86121 0.010931 
-0.047155 -0.14991 0.739 0.59514 0.43036 -0.67867 0.0030944 
-0.041244 -0.19923 0.734 0.39259 -0.42828 -0.81391 0.0058088 
-0.047155 -0.20903 0.739 0.29383 -0.52591 -0.79817 0.0023803 
-0.04997 -0.21185 0.739 0.27812 -0.53471 -0.79796 0.0018369 
-0.050173 -0.14204 0.742 0.55241 0.45654 -0.69743 0.0058974 
-0.050822 -0.16082 0.731 0.57896 0.35576 -0.73365 0.0018065 
-0.054286 -0.11074 0.76 0.51437 0.51204 -0.68792 0.010913 
-0.051795 -0.2604 0.745 0.41159 0.13001 -0.90205 0.012885 
-0.05538 -0.02106 0.819 0.41856 0.63621 -0.6481 0.014223 
-0.05852 -0.0494 0.798 0.26271 0.57172 -0.77725 0.016109 
-0.050929 -0.092262 0.775 0.54171 0.47821 -0.69128 0.0038128 
-0.053714 -0.12247 0.752 0.42644 0.43399 -0.7936 0.01453 
-0.060943 -0.030086 0.81 0.18932 0.52564 -0.82937 0.057258 
-0.05852 -0.05244 0.798 0.25671 0.60237 -0.75581 0.014043 
-0.050729 -0.062843 0.795 0.5436 0.47074 -0.69491 0.0036127 
-0.059363 -0.063871 0.789 0.38387 0.49498 -0.77951 0.0066152 
-0.050346 -0.072889 0.789 0.56273 0.46717 -0.68197 0.0024118 
-0.021574 -0.04235 0.839 0.63228 0.50425 -0.58818 0.0025532 
-0.05085 -0.2299 0.752 0.33077 -0.22127 -0.9174 0.038693 
-0.055643 -0.079384 0.779 0.391 0.55527 -0.73402 0.016318 
-0.051191 -0.088287 0.779 0.50359 0.48967 -0.71177 0.0056277 
-0.059246 -0.089966 0.768 0.30165 0.53754 -0.78744 0.028263 
-0.054857 -0.098743 0.768 0.45883 0.52683 -0.71549 0.0082741 
-0.051931 -0.10313 0.768 0.49944 0.50439 -0.70438 0.0077595 
-0.05703 -0.10901 0.758 0.33452 0.58014 -0.74266 0.014028 
-0.051255 -0.11478 0.758 0.57932 0.45665 -0.67517 0.011377 
-0.059128 -0.11897 0.748 0.35281 0.51669 -0.7801 0.0081202 
-0.050579 -0.13322 0.748 0.62889 0.41473 -0.65765 0.0037605 
-0.050405 -0.17607 0.725 0.51419 0.13318 -0.84728 0.016235 
-0.052004 -0.12894 0.748 0.54039 0.44306 -0.71532 0.011667 
-0.016472 -0.20984 0.752 0.31293 -0.29854 -0.90163 0.013597 
-0.055601 -0.13865 0.739 0.42748 0.54489 -0.72135 0.023518 
-0.05346 -0.15899 0.729 0.57473 0.36348 -0.73318 0.0030285 
-0.10976 -0.14411 0.784 -0.78636 0.32113 -0.52774 0.0022976 
-0.054047 -0.20987 0.737 0.26642 -0.55353 -0.78907 0.001326 
-0.059824 -0.21607 0.739 0.29221 -0.49896 -0.81587 0.005106 
-0.053071 -0.21865 0.743 0.26645 -0.51367 -0.81557 0.002994 
-0.050683 -0.16177 0.729 0.57256 0.33889 -0.74655 0.0026488 
-0.097466 -0.19991 0.747 -0.35192 -0.5755 -0.73821 0.015797 
-0.069759 -0.014892 0.823 -0.18515 0.77836 -0.59989 0.067338 
-0.067529 -0.020957 0.815 -0.028809 0.6839 -0.72901 0.068439 
-0.092213 -0.21979 0.728 0.35448 -0.068623 -0.93254 0.015966 
-0.068488 -0.030011 0.808 -0.28208 0.54562 -0.78913 0.043536 
-0.090827 -0.22395 0.728 0.38031 -0.041128 -0.92394 0.013916 
-0.069507 -0.040482 0.802 -0.15428 0.46449 -0.87204 0.051125 
-0.06004 -0.05244 0.798 0.18362 0.63178 -0.75308 0.026871 
-0.062369 -0.060866 0.789 0.12384 0.54307 -0.83051 0.029827 
-0.069263 -0.070752 0.782 -0.24168 0.48625 -0.83973 0.02408 
-0.068643 -0.080452 0.775 -0.077461 0.66037 -0.74694 0.051442 
-0.1299 -0.0528 0.88 -0.8957 0.09581 -0.43422 0.02466 
-0.060155 -0.10074 0.761 0.23403 0.5365 -0.8108 0.030793 
-0.03395 -0.037108 0.829 0.62874 0.49234 -0.60191 0.0024351 
-0.11978 -0.15895 0.791 -0.78247 0.29906 -0.54617 0.013995 
-0.060067 -0.21977 0.742 0.32403 -0.45387 -0.83006 0.0098644 
-0.12692 -0.060555 0.871 -0.8237 0.37236 -0.42763 0.025014 
-0.069563 -0.11116 0.753 -0.11005 0.58414 -0.80416 0.050021 
-0.069009 -0.12165 0.747 -0.1224 0.57973 -0.80557 0.050923 
-0.11647 -0.14953 0.789 -0.81052 0.22683 -0.54001 0.0080149 
-0.060817 -0.20902 0.734 0.2324 -0.55624 -0.79787 0.0010907 
-0.11948 -0.15404 0.789 -0.78829 0.26322 -0.55616 0.012655 
-0.069677 -0.21888 0.739 0.3957 -0.38189 -0.83521 0.016586 
-0.0351 -0.04914 0.819 0.57721 0.49908 -0.64634 0.0026379 
-0.11948 -0.16907 0.789 -0.77103 0.36721 -0.52026 0.018055 
-0.069677 -0.22029 0.739 0.40455 -0.32741 -0.8539 0.02291 
-0.030791 -0.043424 0.829 0.62677 0.49006 -0.60581 0.00326 
-0.11857 -0.16691 0.793 -0.76971 0.3643 -0.52424 0.020478 
-0.067405 -0.22918 0.745 0.4448 -0.057746 -0.89377 0.024498 
-0.03042 -0.05538 0.819 0.63294 0.455 -0.62639 0.0044499 
-0.1196 -0.17309 0.78 -0.77872 0.39701 -0.48578 0.014494 
-0.066862 -0.24 0.739 0.51745 0.14558 -0.84324 0.0087133 
-0.07985 -0.042638 0.814 -0.6865 0.45195 -0.56961 0.0033122 
-0.070411 -0.20984 0.732 0.23617 -0.54458 -0.80477 0.0021989 
-0.12947 -0.16884 0.795 -0.77518 0.38158 -0.50348 0.021113 
-0.071181 -0.22905 0.74 0.52763 -0.0059586 -0.84945 0.023722 
-0.030809 -0.098437 0.789 0.61935 0.43534 -0.65336 0.0024459 
-0.089431 -0.032449 0.831 -0.75814 0.38766 -0.52436 0.0023424 
-0.13533 -0.11951 0.831 -0.41052 0.50465 -0.75948 0.06573 
-0.077378 -0.16914 0.719 -0.39082 0.30608 -0.86809 0.028418 
0.010239 -0.07955 0.827 -0.056226 0.5582 -0.8278 0.066598 
-0.10164 -0.12983 0.779 -0.78361 0.3482 -0.51451 0.0041669 
-0.051857 -0.18876 0.726 0.43457 -0.18988 -0.8804 0.0066025 
-0.04914 -0.03198 0.819 0.59112 0.48496 -0.64451 0.0036626 
-0.072296 -0.2197 0.737 0.4089 -0.35515 -0.84063 0.02015 
0.010264 -0.087637 0.829 -0.011146 0.54726 -0.83689 0.038924 
-0.10312 -0.13725 0.779 -0.81273 0.31127 -0.49252 0.0016885 
-0.05346 -0.19926 0.729 0.30865 -0.48179 -0.82013 0.0050228 
-0.041239 -0.041239 0.817 0.5978 0.46367 -0.65395 0.0025792 
-0.12248 -0.16907 0.789 -0.76224 0.38749 -0.5185 0.019655 
-0.0739 -0.22874 0.739 0.52278 -0.01603 -0.85231 0.023943 
-0.10609 -0.1417 0.779 -0.80818 0.31406 -0.49821 0.0017364 
-0.05346 -0.20065 0.729 0.29936 -0.4981 -0.8138 0.0047027 
-0.040987 -0.05336 0.812 0.58958 0.49467 -0.63851 0.0026053 
-0.12983 -0.17936 0.788 -0.7273 0.44071 -0.52613 0.018944 
-0.071085 -0.23296 0.739 0.54499 0.034866 -0.83772 0.015126 
-0.1295 -0.1849 0.786 -0.74695 0.39025 -0.5383 0.012672 
-0.070892 -0.24356 0.737 0.55035 0.19638 -0.81151 0.011535 
-0.079076 -0.17947 0.722 -0.50013 0.16071 -0.85091 0.064115 
-0.0055267 -0.079742 0.829 0.48234 0.51844 -0.70609 0.038718 
-0.079076 -0.18222 0.722 -0.37382 0.07479 -0.92448 0.084408 
-0.059574 -0.16914 0.719 0.25699 0.3628 -0.89573 0.027865 
-0.00078952 -0.0829 0.829 0.44231 0.48866 -0.75205 0.036288 
-0.0725 -0.19955 0.725 0.13361 -0.40403 -0.90493 0.04051 
-0.058205 -0.17872 0.719 0.31573 0.00052905 -0.94885 0.023593 
-0.00078381 -0.093273 0.823 0.5054 0.39223 -0.76858 0.031394 
-0.077066 -0.20898 0.729 0.26543 -0.51087 -0.81765 0.0070999 
-0.079843 -0.21037 0.729 0.34236 -0.39061 -0.85453 0.01788 
-0.043154 -0.10898 0.768 0.59294 0.43041 -0.68057 0.0059121 
-0.09126 -0.04914 0.819 -0.73088 0.42281 -0.53576 0.0031356 
0.0055267 -0.092374 0.829 0.26219 0.41942 -0.86911 0.045064 
-0.068734 -0.2062 0.729 0.24457 -0.54718 -0.80049 0.0024858 
-0.080171 -0.23912 0.732 0.50835 0.13054 -0.8512 0.011105 
-0.13133 -0.18387 0.788 -0.74709 0.39037 -0.53803 0.012712 
-0.08296 -0.2433 0.732 0.49984 0.10547 -0.85967 0.014252 
-0.069214 -0.095443 0.765 -0.08304 0.54512 -0.83423 0.056413 
-0.039574 -0.1826 0.729 0.51456 0.013131 -0.85735 0.01582 
-0.088964 -0.12131 0.772 -0.74429 0.40286 -0.53266 0.0038912 
-0.01658 -0.059214 0.829 0.66221 0.39349 -0.63769 0.0019659 
-0.085397 -0.16871 0.729 -0.70194 0.32393 -0.63431 0.010719 
0.0086638 -0.07955 0.827 -0.015566 0.52794 -0.84914 0.05485 
-0.061198 -0.1891 0.722 0.22098 -0.25923 -0.94019 0.018553 
-0.0507 -0.03042 0.819 0.55244 0.5129 -0.65707 0.0063652 
-0.08039 -0.2188 0.734 0.4463 -0.23955 -0.86223 0.02986 
-0.089524 -0.20411 0.752 -0.098505 -0.69299 -0.71419 0.0075156 
0.0039476 -0.089216 0.829 0.44643 0.45954 -0.76781 0.04976 
-0.069834 -0.19982 0.726 0.13239 -0.4758 -0.86953 0.040683 
-0.051813 -0.040987 0.812 0.56233 0.45203 -0.69243 0.0020379 
-0.08039 -0.22859 0.734 0.52311 0.0082051 -0.85223 0.015031 
-0.011843 -0.068689 0.829 0.62811 0.42284 -0.65321 0.0038065 
-0.04773 -0.24862 0.748 0.52059 0.18654 -0.83318 0.010548 
-0.088174 -0.17982 0.729 -0.79391 0.16465 -0.58531 0.021872 
-0.010264 -0.070268 0.829 0.61014 0.44941 -0.6525 0.0039001 
-0.04773 -0.25147 0.748 0.52258 0.19399 -0.83023 0.009046 
-0.084009 -0.18954 0.729 -0.67472 -0.14445 -0.7238 0.074381 
-0.060071 -0.16088 0.725 0.21965 0.4224 -0.87939 0.028456 
-0.0585 -0.01794 0.819 0.3924 0.65345 -0.64732 0.015911 
-0.089142 -0.19302 0.737 -0.825 -0.20171 -0.52792 0.05915 
-0.052898 -0.01658 0.829 0.46488 0.62297 -0.62912 0.01844 
-0.088929 -0.19991 0.747 -0.20116 -0.64668 -0.73576 0.015743 
-0.12931 -0.11027 0.833 -0.50445 0.4767 -0.71992 0.03589 
-0.060944 -0.16914 0.719 0.25705 0.36274 -0.89574 0.027855 
-0.087328 -0.19872 0.722 -0.58883 -0.13837 -0.79632 0.15592 
-0.10185 -0.057635 0.829 -0.78739 0.36263 -0.49852 0.0032615 
-0.10062 -0.06786 0.819 -0.80708 0.32861 -0.49055 0.0024333 
-0.05085 -0.23992 0.752 0.51496 0.098828 -0.8515 0.014468 
-0.090791 -0.16821 0.739 -0.72958 0.36779 -0.57658 0.0041094 
-0.029208 -0.21585 0.748 0.30997 -0.47247 -0.82504 0.0028175 
-0.12605 -0.090723 0.843 -0.69533 0.44372 -0.56535 0.030221 
-0.061791 -0.14927 0.729 0.1061 0.47516 -0.87348 0.039418 
0.0113 -0.15142 0.791 0.5418 0.41317 -0.73195 0.017801 
-0.079165 -0.024298 0.823 -0.68813 0.40617 -0.60126 0.0072265 
-0.10045 -0.2016 0.748 -0.42388 -0.44672 -0.78789 0.036833 
-0.010338 -0.062824 0.835 0.64751 0.4272 -0.63105 0.0043563 
-0.04104 -0.24552 0.756 0.53104 0.10178 -0.84121 0.019307 
-0.089931 -0.17498 0.732 -0.76493 0.15537 -0.6251 0.012518 
-0.060403 -0.15066 0.729 0.23364 0.44336 -0.86536 0.02719 
-0.040877 -0.25172 0.753 0.56776 0.22928 -0.79062 0.0078347 
-0.088779 -0.18944 0.734 -0.8563 -0.072753 -0.51133 0.049414 
-0.060944 -0.17461 0.719 0.20482 0.057787 -0.97709 0.034816 
-0.08112 -0.20869 0.728 0.29352 -0.25377 -0.92166 0.084989 
-0.067791 -0.18968 0.719 0.11809 -0.26756 -0.95628 0.049442 
-0.059253 -0.034629 0.808 0.36585 0.50051 -0.78463 0.02057 
-0.088174 -0.2187 0.729 0.39248 -0.071759 -0.91696 0.017212 
-0.069161 -0.19379 0.719 0.1286 -0.29243 -0.9476 0.041302 
-0.054636 -0.040785 0.808 0.47903 0.48537 -0.7314 0.00593 
-0.08262 -0.22842 0.729 0.52188 -0.061279 -0.85082 0.015132 
-0.052703 -0.051175 0.802 0.49544 0.51496 -0.69953 0.0065573 
-0.08262 -0.23675 0.729 0.51684 0.098536 -0.85039 0.0083032 
0.012353 -0.19111 0.763 0.27341 0.35952 -0.89219 0.021303 
-0.0798 -0.06004 0.798 -0.62573 0.42583 -0.65355 0.010944 
-0.11861 -0.12016 0.814 -0.74484 0.33777 -0.57544 0.011485 
-0.098531 -0.090893 0.802 -0.77186 0.34444 -0.53442 0.001032 
-0.073449 -0.079384 0.779 -0.34045 0.59069 -0.73156 0.027878 
-0.02398 -0.26378 0.763 0.43944 0.37875 -0.81452 0.017045 
-0.11765 -0.13891 0.797 -0.79213 0.37935 -0.47815 0.0049943 
-0.040117 -0.16399 0.739 0.6161 0.35347 -0.7039 0.00071673 
-0.09994 -0.10896 0.789 -0.77256 0.38606 -0.50409 0.0024116 
-0.079384 -0.086803 0.779 -0.64268 0.44125 -0.62631 0.0048075 
-0.11932 -0.14364 0.798 -0.79659 0.36263 -0.48368 0.0053948 
-0.041131 -0.17498 0.732 0.54887 0.21415 -0.80801 0.011406 
-0.09994 -0.11046 0.789 -0.77554 0.36812 -0.51285 0.0027299 
-0.078772 -0.092024 0.773 -0.65368 0.44345 -0.61323 0.0055607 
-0.041075 -0.18867 0.731 0.47156 -0.1552 -0.86807 0.0094548 
-0.0988 -0.12109 0.78 -0.76857 0.3331 -0.54621 0.003885 
-0.07195 -0.11897 0.748 -0.25234 0.55329 -0.79385 0.047108 
-0.13212 -0.20593 0.775 -0.39097 0.39545 -0.83112 0.038314 
0.0069771 -0.12016 0.814 0.56218 0.48639 -0.66886 0.0070696 
-0.11322 -0.17897 0.767 -0.81676 0.27534 -0.50704 0.0042232 
-0.096013 -0.14799 0.758 -0.75123 0.38967 -0.53274 0.0024102 
0.009979 -0.13126 0.806 0.52593 0.54821 -0.65028 0.0099112 
-0.11334 -0.18986 0.758 -0.7687 0.30205 -0.56379 0.01089 
-0.020024 -0.040849 0.841 0.63214 0.50409 -0.58846 0.0024204 
-0.094747 -0.15886 0.748 -0.73164 0.37319 -0.57047 0.0025064 
-0.079843 -0.16177 0.729 -0.72099 0.34969 -0.59825 0.0089121 
-0.06942 -0.01794 0.819 -0.15342 0.7875 -0.59692 0.05756 
-0.093607 -0.19073 0.739 -0.78579 -0.19086 -0.58831 0.06447 
-0.1098 -0.04148 0.854 -0.78881 0.39255 -0.47296 0.0021119 
-0.033814 -0.08942 0.789 0.59455 0.44779 -0.66783 0.0034603 
-0.11623 -0.2043 0.758 -0.53235 -0.14586 -0.83386 0.049795 
-0.088483 -0.024711 0.837 -0.7664 0.37049 -0.52476 0.0025689 
-0.069677 -0.13161 0.739 -0.30435 0.43794 -0.84592 0.03256 
-0.12962 -0.080709 0.856 -0.50772 0.53811 -0.6728 0.029014 
-0.10864 -0.0507 0.845 -0.80574 0.36051 -0.4699 0.0032336 
-0.052004 -0.25717 0.748 0.50519 0.18278 -0.84343 0.013705 
-0.031902 -0.10906 0.779 0.62172 0.41446 -0.6646 0.0034286 
-0.088786 -0.041643 0.825 -0.73496 0.41051 -0.53974 0.0030709 
-0.10869 -0.07378 0.833 -0.82348 0.32473 -0.46522 0.0037519 
-0.078688 -0.11623 0.758 -0.69003 0.42753 -0.58402 0.0073528 
-0.039246 -0.059253 0.808 0.58764 0.4766 -0.65386 0.0025663 
-0.11945 -0.17583 0.779 -0.78604 0.39178 -0.47817 0.012829 
-0.098614 -0.1439 0.767 -0.77074 0.38163 -0.51021 0.0046026 
-0.079603 -0.1212 0.753 -0.66963 0.42668 -0.6079 0.005191 
-0.03155 -0.068488 0.808 0.63109 0.46313 -0.62228 0.0037824 
-0.11883 -0.18231 0.775 -0.76871 0.38999 -0.50694 0.0060865 
-0.099553 -0.15042 0.763 -0.75312 0.42029 -0.50612 0.0048627 
-0.079074 -0.12894 0.748 -0.67917 0.40046 -0.61511 0.0057901 
-0.11922 -0.18944 0.768 -0.76348 0.33374 -0.55292 0.0094735 
-0.098901 -0.15377 0.758 -0.73198 0.3908 -0.55811 0.0026158 
-0.036331 -0.2187 0.748 0.2578 -0.52325 -0.81225 0.0023265 
-0.074289 -0.14927 0.729 -0.3932 0.36146 -0.84542 0.023915 
-0.050714 -0.24214 0.75 0.52339 0.11296 -0.84457 0.011921 
-0.096422 -0.17947 0.739 -0.7261 0.13615 -0.67397 0.019935 
-0.039181 -0.22155 0.748 0.24871 -0.5344 -0.80781 0.002393 
-0.078454 -0.15899 0.729 -0.516 0.46526 -0.71922 0.035734 
-0.095014 -0.18792 0.739 -0.69596 -0.1734 -0.69683 0.034772 
-0.019491 -0.22451 0.758 0.2648 -0.48363 -0.83426 0.0073681 
-0.05103 -0.15169 0.734 0.55067 0.44174 -0.70825 0.0049207 
-0.098901 -0.21152 0.758 -0.23296 -0.57863 -0.78161 0.025921 
-0.019 -0.09956 0.798 0.66781 0.44958 -0.59322 0.0031096 
-0.099162 -0.21497 0.76 -0.17459 -0.63475 -0.75274 0.035948 
0.0065571 -0.19016 0.765 0.38402 0.36787 -0.84688 0.021511 
-0.08588 -0.06916 0.798 -0.71336 0.39117 -0.58147 0.0011063 
-0.1287 -0.1287 0.819 -0.54578 0.43114 -0.7185 0.0081246 
-0.10696 -0.09773 0.808 -0.79443 0.33019 -0.50977 0.0013089 
-0.079074 -0.13037 0.748 -0.67934 0.40062 -0.61482 0.0059519 
-0.03268 -0.0798 0.798 0.61902 0.4624 -0.63482 0.0058049 
-0.11922 -0.1909 0.768 -0.75152 0.33518 -0.56822 0.0088034 
-0.099683 -0.16136 0.753 -0.73766 0.35694 -0.57311 0.0022771 
-0.13257 -0.083773 0.854 -0.49757 0.57549 -0.64903 0.021871 
-0.075308 -0.13865 0.739 -0.44559 0.42198 -0.78955 0.03597 
-0.084887 -0.019833 0.833 -0.71416 0.39449 -0.57823 0.010267 
-0.11767 -0.19997 0.758 -0.61252 -0.10374 -0.78362 0.03688 
-0.099021 -0.16883 0.748 -0.77649 0.31561 -0.5454 0.0025269 
-0.033571 -0.21929 0.75 0.2855 -0.50304 -0.81575 0.0029901 
-0.07953 -0.14428 0.739 -0.67921 0.39436 -0.61899 0.008168 
-0.098889 -0.1743 0.747 -0.76986 0.24862 -0.5878 0.0069771 
-0.099021 -0.2016 0.748 -0.31784 -0.53506 -0.78275 0.025515 
-0.010829 -0.21874 0.758 0.22693 -0.46188 -0.85742 0.0097398 
-0.051378 -0.14428 0.739 0.5533 0.45051 -0.70064 0.0048074 
-0.09864 -0.20808 0.756 -0.22235 -0.57636 -0.78636 0.031467 
-0.06916 -0.04636 0.798 -0.16109 0.61332 -0.77323 0.046187 
-0.03393 -0.13788 0.758 0.61221 0.49656 -0.61532 0.0061348 
-0.089143 -0.073905 0.8 -0.73872 0.37611 -0.55931 0.00097356 
-0.10877 -0.10106 0.81 -0.79698 0.32388 -0.50983 0.0018262 
-0.085319 -0.095706 0.779 -0.73588 0.37699 -0.56246 0.0013285 
-0.040169 -0.030717 0.827 0.62307 0.5079 -0.59483 0.0025755 
-0.12372 -0.15712 0.797 -0.7634 0.28105 -0.58157 0.015934 
0.010388 -0.072713 0.839 0.15388 0.68097 -0.71596 0.039358 
-0.10595 -0.12849 0.789 -0.79276 0.32524 -0.51551 0.0014619 
-0.0396 -0.22968 0.756 0.3637 -0.33234 -0.87021 0.025933 
-0.079208 -0.15491 0.736 -0.61782 0.41129 -0.67018 0.018529 
-0.09964 -0.18868 0.742 -0.67969 -0.15692 -0.71651 0.034038 
-0.076009 -0.17735 0.719 -0.29135 0.19321 -0.9369 0.047671 
-0.068488 -0.028472 0.808 -0.26532 0.51797 -0.81321 0.051685 
-0.094595 -0.20921 0.725 0.40178 -0.35248 -0.84518 0.0090573 
0.0050667 -0.20194 0.76 0.29886 0.2113 -0.93061 0.020457 
-0.08892 -0.07524 0.798 -0.73772 0.37445 -0.56175 0.0011458 
-0.1287 -0.13182 0.819 -0.54809 0.41954 -0.72359 0.0082071 
0.010549 -0.059234 0.852 0.34323 0.60079 -0.72197 0.040809 
-0.1085 -0.10542 0.808 -0.80266 0.32593 -0.4995 0.0013447 
-0.069883 -0.059363 0.789 -0.21704 0.56138 -0.79859 0.024528 
-0.037756 -0.14889 0.748 0.63332 0.42488 -0.64683 0.0034083 
-0.089873 -0.085342 0.793 -0.74711 0.36687 -0.55429 0.0010471 
0.010549 -0.060857 0.852 0.34323 0.60079 -0.72197 0.040809 
-0.019851 -0.24925 0.772 0.28797 0.14013 -0.94733 0.050602 
-0.1095 -0.11409 0.804 -0.81812 0.30756 -0.48589 0.0021017 
-0.089811 -0.065248 0.806 -0.73844 0.38486 -0.55371 0.00087704 
-0.12964 -0.12021 0.825 -0.51387 0.45845 -0.7251 0.044913 
0.010759 -0.045519 0.869 0.59274 0.70426 -0.39073 0.0092257 
-0.10998 -0.09126 0.819 -0.81359 0.3291 -0.47933 0.0025786 
-0.094595 -0.23545 0.725 0.44576 0.049806 -0.89376 0.0079822 
-0.04773 -0.13891 0.748 0.60564 0.4643 -0.64623 0.0034449 
-0.09044 -0.07828 0.798 -0.74193 0.36942 -0.55953 0.00085353 
0.0089467 -0.05124 0.854 0.53869 0.52437 -0.65943 0.014753 
-0.11158 -0.1085 0.808 -0.79888 0.33766 -0.49777 0.0018874 
-0.08942 -0.090923 0.789 -0.75762 0.3467 -0.553 0.0011571 
-0.1245 -0.15353 0.802 -0.79274 0.26386 -0.54949 0.017752 
-0.019671 -0.25573 0.765 0.46932 0.23126 -0.85221 0.027442 
-0.10854 -0.12069 0.797 -0.82534 0.30595 -0.47455 0.0017083 
-0.068997 -0.076416 0.779 -0.19716 0.54271 -0.81645 0.032892 
-0.035894 -0.16962 0.739 0.62416 0.34835 -0.69934 0.001449 
-0.088627 -0.10054 0.782 -0.74012 0.37589 -0.55761 0.0017509 
-0.10951 -0.13066 0.793 -0.80924 0.33841 -0.48021 0.0020344 
-0.08977 -0.10758 0.779 -0.73155 0.35733 -0.58064 0.0021856 
-0.10896 -0.133 0.789 -0.79268 0.33377 -0.51015 0.0011781 
-0.08704 -0.11922 0.768 -0.74404 0.4049 -0.53147 0.003728 
-0.0788 -0.072796 0.788 -0.64551 0.4224 -0.63632 0.0033158 
-0.11928 -0.13467 0.808 -0.74881 0.37657 -0.54541 0.0064972 
-0.0094962 -0.2374 0.767 0.15383 -0.45477 -0.87722 0.01611 
-0.09956 -0.10108 0.798 -0.77378 0.35323 -0.52583 0.0020195 
-0.077378 -0.18146 0.719 -0.27513 0.097223 -0.95648 0.071247 
-0.00702 -0.0897 0.819 0.6222 0.42646 -0.6565 0.0024454 
-0.078748 -0.19653 0.719 -0.17679 -0.28698 -0.94148 0.086378 
-0.071386 -0.059363 0.789 -0.29444 0.55233 -0.7799 0.029868 
-0.04488 -0.14461 0.748 0.63143 0.44645 -0.63402 0.0022351 
-0.095 -0.0874 0.798 -0.76284 0.35423 -0.54092 0.0012008 
0.0073029 -0.064103 0.852 0.32931 0.58015 -0.74497 0.035451 
-0.021267 -0.2486 0.77 0.37422 0.17609 -0.91047 0.042799 
-0.11312 -0.1162 0.808 -0.82155 0.28801 -0.49204 0.00198 
-0.047906 -0.16732 0.729 0.57407 0.31659 -0.75512 0.0034695 
-0.091254 -0.10906 0.779 -0.72891 0.35805 -0.58351 0.0026523 
0.0039667 -0.081713 0.833 0.35366 0.52462 -0.7744 0.056224 
-0.029598 -0.26205 0.758 0.50582 0.31564 -0.80282 0.014293 
-0.11046 -0.13751 0.789 -0.7802 0.33911 -0.52564 0.0022225 
-0.069101 -0.11754 0.748 -0.20918 0.58428 -0.78413 0.04465 
-0.12497 -0.060416 0.869 -0.71433 0.41737 -0.56172 0.013615 
-0.10868 -0.036771 0.858 -0.7923 0.42377 -0.43896 0.0013803 
-0.06656 -0.08704 0.768 -0.007867 0.62456 -0.78093 0.049949 
-0.089079 -0.11411 0.773 -0.74018 0.38115 -0.55394 0.0039925 
-0.12947 -0.17187 0.795 -0.74687 0.4215 -0.51432 0.022949 
-0.074356 -0.10901 0.758 -0.46883 0.55386 -0.68806 0.02973 
-0.11396 -0.16837 0.772 -0.85183 0.29926 -0.42992 0.01131 
-0.098743 -0.13824 0.768 -0.77272 0.36847 -0.51685 0.0036678 
-0.10584 -0.21672 0.756 -0.31389 -0.56188 -0.76535 0.022579 
0.0050533 -0.2043 0.758 0.31929 0.1422 -0.93693 0.016497 
-0.080403 -0.072889 0.789 -0.64569 0.42249 -0.63607 0.0034842 
-0.04522 -0.019833 0.833 0.61092 0.5221 -0.59514 0.0024171 
-0.12543 -0.13928 0.808 -0.74573 0.36926 -0.55455 0.011395 
-0.016823 -0.23918 0.768 0.22391 -0.30878 -0.9244 0.035783 
-0.10412 -0.10868 0.798 -0.79684 0.33901 -0.50012 0.0024099 
-0.012143 -0.19071 0.75 0.52811 0.10738 -0.84236 0.019804 
-0.11956 -0.07076 0.854 -0.72828 0.42333 -0.53889 0.014988 
-0.01482 -0.07878 0.819 0.6306 0.46462 -0.62166 0.001896 
-0.083874 -0.18889 0.716 -0.5051 -0.0042498 -0.86305 0.1241 
-0.074644 -0.039246 0.808 -0.48977 0.56302 -0.66568 0.023047 
-0.10122 -0.21965 0.723 0.47058 0.0077116 -0.88232 0.00399 
0.00072 -0.21384 0.756 0.33088 -0.24541 -0.9112 0.018265 
-0.08942 -0.08942 0.789 -0.74875 0.3688 -0.55078 0.0014844 
-0.040557 -0.021471 0.835 0.5954 0.54948 -0.58615 0.0013605 
-0.12543 -0.14082 0.808 -0.75001 0.36099 -0.55423 0.0096007 
-0.019723 -0.24909 0.767 0.37991 0.18374 -0.90659 0.039875 
-0.10868 -0.11932 0.798 -0.82564 0.30145 -0.47692 0.0019889 
-0.01014 -0.08346 0.819 0.6227 0.44724 -0.64205 0.0020539 
-0.084226 -0.19516 0.719 -0.45262 -0.14305 -0.88016 0.1049 
-0.079261 -0.045402 0.808 -0.67963 0.45167 -0.57801 0.0039924 
-0.10108 -0.22073 0.722 0.47058 0.0077116 -0.88232 0.00399 
-0.082351 -0.08977 0.779 -0.67447 0.42563 -0.60327 0.0050781 
-0.048161 -0.021317 0.829 0.61911 0.51507 -0.59279 0.0037061 
-0.12084 -0.14972 0.798 -0.81872 0.24651 -0.51858 0.01408 
0.010363 -0.069351 0.837 0.15398 0.68095 -0.71596 0.039402 
-0.10131 -0.11632 0.788 -0.78409 0.3539 -0.50986 0.0020709 
-0.019234 -0.2073 0.748 0.41291 -0.34299 -0.84372 0.0097802 
-0.11991 -0.081281 0.845 -0.68728 0.49026 -0.53599 0.015546 
-0.08735 -0.12922 0.758 -0.75962 0.38342 -0.52533 0.0056542 
-0.040583 -0.060491 0.804 0.58298 0.47156 -0.66163 0.0028767 
-0.12687 -0.18919 0.779 -0.76226 0.39843 -0.51011 0.0079366 
0.01014 -0.10842 0.819 0.5637 0.45083 -0.69209 0.0091622 
-0.10898 -0.15872 0.768 -0.79719 0.38035 -0.46885 0.0097852 
0.00814 -0.17242 0.777 0.63148 0.4402 -0.63832 0.0068593 
-0.0808 -0.046941 0.808 -0.67657 0.46223 -0.57323 0.0044818 
-0.12396 -0.10974 0.829 -0.51256 0.48146 -0.71097 0.032034 
-0.1053 -0.07878 0.819 -0.81518 0.34633 -0.46426 0.002716 
-0.015182 -0.047144 0.839 0.63834 0.48658 -0.59645 0.0028379 
-0.043862 -0.22938 0.755 0.37984 -0.3316 -0.86358 0.028213 
-0.086569 -0.15976 0.739 -0.72033 0.37601 -0.58287 0.003009 
0.011386 -0.13891 0.797 0.47489 0.51838 -0.71117 0.0077028 
-0.10614 -0.18878 0.748 -0.72641 0.07114 -0.68357 0.027638 
-0.13095 -0.078893 0.854 -0.54647 0.54001 -0.64013 0.027687 
-0.11064 -0.049265 0.848 -0.81393 0.36101 -0.45519 0.0037282 
-0.09277 -0.12783 0.767 -0.77163 0.36008 -0.52433 0.0047358 
0.0054733 -0.10556 0.821 0.5608 0.45084 -0.69444 0.0064782 
-0.11203 -0.15951 0.779 -0.86176 0.3268 -0.38804 0.012956 
0.00702 -0.10998 0.819 0.55465 0.46333 -0.69115 0.0084496 
-0.11045 -0.15872 0.768 -0.79711 0.38077 -0.46864 0.011154 
0.0097686 -0.16156 0.789 0.66443 0.28831 -0.6895 0.013492 
-0.08502 -0.03666 0.819 -0.71248 0.41287 -0.56737 0.0044179 
-0.12865 -0.093489 0.839 -0.70272 0.39054 -0.59469 0.026309 
-0.10501 -0.068689 0.829 -0.8034 0.33049 -0.4953 0.0034415 
-0.01373 -0.039573 0.848 0.61637 0.48422 -0.62098 0.0022785 
-0.089048 -0.14889 0.748 -0.72779 0.36136 -0.58288 0.0026678 
-0.099337 -0.029882 0.848 -0.76316 0.41667 -0.49393 0.002037 
-0.12946 -0.20846 0.768 -0.66381 -0.20272 -0.7199 0.021536 
0.010004 -0.12543 0.808 0.56899 0.50245 -0.651 0.0072914 
-0.10901 -0.17975 0.758 -0.81452 0.2499 -0.52355 0.0034952 
-0.13123 -0.05842 0.889 -0.96082 -0.077537 -0.26613 0.0026181 
-0.079726 -0.10313 0.768 -0.68999 0.39799 -0.60458 0.0047654 
-0.049294 -0.19787 0.729 0.3772 -0.41635 -0.82727 0.0089207 
-0.0999 -0.13098 0.777 -0.77666 0.35426 -0.52087 0.0036772 
-0.02052 -0.09804 0.798 0.67993 0.43471 -0.59054 0.0028628 
-0.10973 -0.21437 0.763 -0.30175 -0.44548 -0.84291 0.024343 
-0.044036 -0.12922 0.758 0.68593 0.40177 -0.6067 0.0075835 
-0.091573 -0.06541 0.808 -0.73721 0.38198 -0.55733 0.00074209 
-0.13436 -0.12021 0.825 -0.47968 0.50027 -0.72086 0.055177 
0.0091038 -0.043864 0.869 0.57672 0.71317 -0.39848 0.0081064 
-0.11154 -0.0975 0.819 -0.82217 0.32168 -0.46963 0.0022447 
-0.091682 -0.13933 0.758 -0.75821 0.35557 -0.54653 0.0016556 
-0.13014 -0.19925 0.772 -0.72891 0.2932 -0.61865 0.030831 
0.0054467 -0.11127 0.817 0.55737 0.46254 -0.6895 0.0068577 
-0.11191 -0.16457 0.768 -0.81963 0.3288 -0.46916 0.0080787 
-0.083019 -0.11911 0.758 -0.69581 0.42672 -0.57772 0.007332 
-0.040785 -0.057714 0.808 0.59266 0.46147 -0.66015 0.0028312 
-0.1239 -0.1788 0.779 -0.74158 0.4231 -0.52063 0.013564 
-0.10167 -0.14848 0.768 -0.77725 0.40201 -0.48402 0.0055987 
-0.078672 -0.052703 0.802 -0.60463 0.47266 -0.64111 0.024404 
-0.099514 -0.081 0.81 -0.78028 0.35984 -0.51154 0.0011453 
-0.11992 -0.11052 0.823 -0.7023 0.46997 -0.53469 0.02505 
-0.12917 -0.049167 0.875 -0.89534 0.094632 -0.43521 0.024465 
-0.068581 -0.10323 0.758 -0.15474 0.57727 -0.80176 0.057264 
-0.12961 -0.051008 0.878 -0.89595 0.096647 -0.43352 0.024832 
-0.040229 -0.11922 0.768 0.64859 0.33879 -0.68158 0.0074126 
-0.09594 -0.0585 0.819 -0.77079 0.39928 -0.49646 0.0024208 
-0.11448 -0.084479 0.829 -0.76509 0.37501 -0.52346 0.0081878 
-0.0768 -0.098743 0.768 -0.55542 0.46351 -0.69041 0.023996 
-0.13401 -0.18701 0.795 -0.87711 0.23921 -0.41648 0.0028192 
-0.04374 -0.18954 0.729 0.45453 -0.16734 -0.87487 0.0076709 
-0.098673 -0.12241 0.779 -0.76656 0.3492 -0.53893 0.0046933 
-0.02812 -0.08892 0.798 0.64143 0.44718 -0.62338 0.0033051 
-0.10944 -0.20946 0.761 -0.33803 -0.53699 -0.7729 0.021396 
-0.083349 -0.13891 0.748 -0.71932 0.35963 -0.59434 0.002871 
-0.04028 -0.07372 0.798 0.56921 0.47352 -0.67214 0.0036843 
-0.12654 -0.19968 0.768 -0.74225 0.21216 -0.63565 0.035397 
-0.10612 -0.16965 0.758 -0.79474 0.25915 -0.54884 0.0033355 
-0.11987 -0.13069 0.812 -0.71928 0.39713 -0.57002 0.0070588 
-0.041329 -0.081906 0.789 0.56661 0.47652 -0.67222 0.0021428 
-0.093489 -0.029565 0.839 -0.76339 0.37065 -0.52901 0.0024093 
-0.11387 -0.058956 0.848 -0.82649 0.32284 -0.46119 0.0057224 
-0.062978 -0.24696 0.743 0.51129 0.20029 -0.83574 0.0078103 
-0.040805 -0.098673 0.779 0.57063 0.45576 -0.68313 0.003523 
-0.090795 -0.038687 0.829 -0.74169 0.40587 -0.53401 0.0028233 
-0.11267 -0.069517 0.839 -0.83137 0.31776 -0.45591 0.0053471 
-0.13323 -0.060249 0.891 0.18849 -0.82976 -0.52533 0 
-0.089029 -0.13246 0.76 -0.7639 0.38118 -0.52074 0.0043996 
-0.12851 -0.1924 0.78 -0.76254 0.39519 -0.5122 0.0076041 
-0.010971 -0.16311 0.768 0.59218 0.43399 -0.67896 0.0015959 
-0.11973 -0.048717 0.867 -0.78818 0.26442 -0.55574 0.0047437 
-0.021111 -0.06959 0.821 0.65383 0.43111 -0.62181 0.0029844 
-0.050579 -0.24435 0.748 0.52291 0.11281 -0.84489 0.011467 
-0.039321 -0.098673 0.779 0.57063 0.45576 -0.68313 0.0035246 
-0.089216 -0.03395 0.829 -0.7437 0.39042 -0.54266 0.0031012 
-0.10895 -0.062824 0.835 -0.80372 0.32526 -0.49823 0.0024729 
-0.010573 -0.0366 0.854 0.60477 0.50188 -0.61836 0.0031692 
-0.09 -0.14328 0.756 -0.75835 0.36177 -0.54224 0.0015533 
0.010078 -0.12016 0.814 0.54497 0.47818 -0.68874 0.0093428 
-0.10973 -0.17658 0.763 -0.82377 0.25138 -0.50814 0.0029025 
-0.1298 -0.20753 0.77 -0.71137 0.20729 -0.67155 0.047829 
-0.088794 -0.13355 0.758 -0.76777 0.37099 -0.5224 0.0036867 
0.010115 -0.11127 0.817 0.55379 0.4611 -0.69333 0.0096248 
-0.10898 -0.16018 0.768 -0.80864 0.35552 -0.46873 0.010843 
-0.040381 -0.070857 0.8 0.56381 0.47141 -0.67815 0.0044915 
-0.12506 -0.19018 0.777 -0.737 0.39464 -0.54871 0.0053184 
-0.021317 -0.051319 0.829 0.63832 0.4587 -0.61817 0.0029801 
-0.053429 -0.23865 0.748 0.49199 0.12648 -0.86136 0.01491 
0.0097933 -0.15142 0.791 0.5418 0.41317 -0.73195 0.017801 
-0.084479 -0.024475 0.829 -0.70746 0.40737 -0.57753 0.0090862 
-0.10947 -0.05833 0.839 -0.7943 0.33526 -0.50664 0.0041865 
-0.020659 -0.20873 0.748 0.34659 -0.43594 -0.83056 0.0012833 
-0.12518 -0.08803 0.848 -0.58148 0.56708 -0.58336 0.02123 
-0.07524 -0.0494 0.798 -0.36648 0.57562 -0.73099 0.045066 
-0.042592 -0.13066 0.758 0.67877 0.41392 -0.60658 0.0071457 
-0.09773 -0.079261 0.808 -0.76517 0.35927 -0.53427 0.00053854 
-0.11778 -0.10998 0.819 -0.73728 0.38822 -0.5529 0.022977 
-0.12166 -0.04883 0.869 -0.79412 0.24442 -0.55645 0.0058644 
-0.030494 -0.053951 0.821 0.62414 0.44105 -0.64492 0.0032769 
-0.060471 -0.23264 0.747 0.4808 -0.056628 -0.875 0.02395 
-0.036089 -0.20875 0.743 0.30765 -0.4696 -0.82754 0.0018453 
-0.13056 -0.088906 0.841 -0.65764 0.45933 -0.5971 0.031174 
-0.079638 -0.14166 0.74 -0.67646 0.3845 -0.62814 0.0089471 
-0.03116 -0.08132 0.798 0.61768 0.45687 -0.64011 0.0045374 
-0.1199 -0.20855 0.763 -0.54534 -0.037894 -0.83736 0.04214 
0.011271 -0.16156 0.789 0.66443 0.28831 -0.6895 0.013492 
-0.07878 -0.03042 0.819 -0.64529 0.42334 -0.63591 0.01206 
-0.099544 -0.060353 0.823 -0.78413 0.36192 -0.50414 0.003194 
-0.11979 -0.09282 0.833 -0.74751 0.38374 -0.5422 0.018778 
-0.084114 -0.10898 0.768 -0.73387 0.38385 -0.56044 0.0057659 
-0.030965 -0.091384 0.793 0.64087 0.42377 -0.64009 0.0033646 
-0.1173 -0.21347 0.765 -0.4447 -0.3789 -0.81159 0.02902 
-0.098455 -0.070547 0.814 -0.77659 0.35538 -0.5202 0.0011057 
-0.11922 -0.10343 0.829 -0.71004 0.3402 -0.61653 0.025958 
-0.0897 -0.04758 0.819 -0.72749 0.42652 -0.53744 0.0035232 
-0.12865 -0.10787 0.839 -0.45833 0.47 -0.75434 0.035676 
-0.10974 -0.079742 0.829 -0.80884 0.34877 -0.47344 0.003314 
-0.12829 -0.071091 0.858 -0.66109 0.47003 -0.58484 0.01176 
-0.06827 -0.1288 0.739 -0.12654 0.48489 -0.86537 0.038186 
-0.010499 -0.046034 0.848 0.62137 0.4696 -0.6272 0.0025833 
-0.089048 -0.15031 0.748 -0.73094 0.35838 -0.58077 0.0030872 
-0.098986 -0.031386 0.845 -0.76285 0.40582 -0.50335 0.0015665 
-0.12199 -0.21403 0.767 -0.57432 -0.30183 -0.76096 0.026504 
0.011514 -0.13126 0.806 0.52562 0.54805 -0.65066 0.0097965 
-0.10858 -0.1848 0.755 -0.7708 0.19057 -0.60791 0.013302 
-0.030271 -0.061319 0.815 0.62963 0.43886 -0.64107 0.0046228 
-0.065454 -0.24281 0.739 0.50356 0.20577 -0.8391 0.0067904 
-0.13024 -0.095087 0.839 -0.65155 0.39874 -0.64536 0.027189 
0.011386 -0.14042 0.797 0.47489 0.51838 -0.71117 0.007701 
-0.10472 -0.19875 0.748 -0.48312 -0.3893 -0.78425 0.041521 
-0.07955 -0.014965 0.827 -0.65754 0.42533 -0.62188 0.01332 
-0.099881 -0.043948 0.839 -0.74946 0.4091 -0.52053 0.0012943 
-0.013535 -0.19875 0.748 0.52622 -0.033616 -0.84968 0.014822 
-0.11872 -0.075109 0.848 -0.70442 0.44738 -0.55104 0.017398 
-0.088495 -0.059253 0.808 -0.72422 0.417 -0.54919 0.0015806 
-0.10998 -0.0897 0.819 -0.81066 0.33271 -0.48181 0.0023803 
-0.12869 -0.1129 0.829 -0.51254 0.51298 -0.68859 0.043108 
-0.10903 -0.04765 0.848 -0.81276 0.36557 -0.45363 0.0036445 
-0.089966 -0.12215 0.768 -0.74863 0.4011 -0.52789 0.0033268 
-0.10906 -0.15357 0.779 -0.78489 0.40181 -0.4717 0.0064428 
-0.040176 -0.12491 0.767 0.68948 0.34261 -0.63815 0.012337 
-0.09906 -0.0663 0.819 -0.79992 0.34615 -0.49021 0.0021631 
-0.11764 -0.097111 0.829 -0.70169 0.37245 -0.60738 0.023055 
-0.14008 -0.11159 0.831 -0.29013 0.66967 -0.68365 0.13266 
-0.0064971 -0.22451 0.758 0.16439 -0.42306 -0.89107 0.010297 
-0.041525 -0.15976 0.739 0.6161 0.39277 -0.68275 0.0021012 
-0.093929 -0.09994 0.789 -0.75913 0.36116 -0.54156 0.0016042 
0.0024029 -0.072887 0.841 0.40419 0.62469 -0.66813 0.037309 
-0.021129 -0.25573 0.765 0.46932 0.23126 -0.85221 0.027441 
-0.11324 -0.12996 0.798 -0.79085 0.37325 -0.48502 0.0046819 
-0.010388 -0.056732 0.839 0.64516 0.4741 -0.59917 0.0033897 
-0.04392 -0.23976 0.756 0.55675 0.042262 -0.82961 0.024278 
-0.087976 -0.16258 0.739 -0.71802 0.37467 -0.58658 0.0029252 
-0.13279 -0.10921 0.825 -0.50723 0.55109 -0.66258 0.053533 
-0.12246 -0.11934 0.819 -0.63741 0.37325 -0.67409 0.026964 
-0.10235 -0.088495 0.808 -0.78633 0.32701 -0.52417 0.0011701 
-0.010871 -0.17032 0.761 0.58433 0.42867 -0.68905 0.0023788 
-0.11945 -0.050252 0.865 -0.80556 0.30197 -0.50979 0.0058469 
-0.079933 -0.10047 0.77 -0.67652 0.40423 -0.61557 0.0049757 
-0.029364 -0.21987 0.752 0.28242 -0.50604 -0.81496 0.0037995 
-0.06641 -0.14051 0.734 -0.035387 0.37375 -0.92686 0.059597 
-0.10323 -0.20863 0.758 -0.29641 -0.55276 -0.77884 0.025343 
-0.10418 -0.039573 0.848 -0.76597 0.40942 -0.49565 0.0019191 
-0.12666 -0.069457 0.858 -0.70457 0.4599 -0.54044 0.014159 
-0.010786 -0.18192 0.755 0.57745 0.37003 -0.72776 0.0062172 
-0.11849 -0.061286 0.858 -0.81595 0.34181 -0.46625 0.0085346 
-0.079414 -0.11001 0.765 -0.70478 0.41488 -0.57547 0.0079616 
-0.038766 -0.11922 0.768 0.66837 0.2924 -0.68394 0.0060607 
-0.089481 -0.050576 0.817 -0.72634 0.42745 -0.53826 0.0026921 
-0.10948 -0.081125 0.827 -0.79959 0.33996 -0.49505 0.0028087 
0.011271 -0.15404 0.789 0.59279 0.38371 -0.70807 0.0151 
-0.07878 -0.02886 0.819 -0.68204 0.40662 -0.60785 0.0058978 
-0.040333 -0.1122 0.77 0.60848 0.39129 -0.69039 0.0067309 
-0.09869 -0.051319 0.829 -0.75857 0.40266 -0.51228 0.0021803 
-0.11906 -0.0839 0.839 -0.69393 0.4992 -0.5189 0.019501 
-0.01516 -0.16965 0.758 0.60694 0.41316 -0.67892 0.0032133 
-0.11522 -0.046577 0.858 -0.82278 0.34192 -0.45402 0.0031155 
-0.080938 -0.14991 0.739 -0.67972 0.39092 -0.62061 0.0086869 
-0.10187 -0.17881 0.748 -0.76052 0.21848 -0.61145 0.0076833 
-0.07969 -0.082669 0.782 -0.65027 0.43766 -0.62097 0.0047315 
-0.031163 -0.029565 0.839 0.64655 0.48507 -0.58879 0.0023115 
-0.11962 -0.14248 0.8 -0.79715 0.3626 -0.48278 0.0056419 
0.013807 -0.18966 0.763 0.2737 0.35922 -0.89221 0.021482 
-0.07676 -0.05244 0.798 -0.4468 0.51543 -0.73123 0.036815 
-0.040823 -0.14109 0.752 0.63079 0.4522 -0.63057 0.003264 
-0.099269 -0.082339 0.808 -0.76997 0.3574 -0.52859 0.00067113 
-0.11934 -0.11622 0.819 -0.70186 0.3499 -0.62046 0.02557 
-0.12332 -0.05545 0.869 -0.76529 0.39438 -0.50872 0.01504 
-0.010829 -0.17542 0.758 0.59214 0.41677 -0.68969 0.0027824 
-0.11849 -0.059651 0.858 -0.81594 0.34175 -0.46632 0.0084952 
-0.13817 -0.11764 0.829 -0.32025 0.53829 -0.77954 0.069958 
-0.022896 -0.04974 0.829 0.62648 0.48958 -0.6065 0.002852 
-0.057703 -0.22867 0.748 0.4257 -0.14726 -0.8928 0.026001 
0.0083495 -0.14042 0.797 0.47487 0.51839 -0.71117 0.0077067 
-0.081321 -0.01658 0.829 -0.68478 0.4024 -0.60757 0.011265 
-0.10308 -0.048742 0.839 -0.75892 0.40588 -0.50921 0.0015496 
-0.020576 -0.19938 0.745 0.47544 -0.20029 -0.85664 0.017229 
-0.12034 -0.079954 0.848 -0.68414 0.47298 -0.5552 0.019138 
-0.10034 -0.15954 0.758 -0.72915 0.39135 -0.56141 0.003436 
-0.0789 -0.069883 0.789 -0.61201 0.4367 -0.65934 0.010567 
-0.0094467 -0.2289 0.763 0.16328 -0.50448 -0.84784 0.0090356 
-0.040334 -0.15214 0.743 0.63173 0.4214 -0.65064 0.0024784 
-0.096399 -0.090327 0.797 -0.76139 0.34962 -0.54594 0.00081672 
-0.1162 -0.12851 0.808 -0.76791 0.37268 -0.52099 0.0053106 
-0.010437 -0.052186 0.843 0.64136 0.48827 -0.59182 0.0035057 
-0.089868 -0.16204 0.743 -0.72358 0.38209 -0.57484 0.0027305 
-0.10972 -0.19865 0.753 -0.63425 -0.1999 -0.74684 0.051028 
-0.04256 -0.090347 0.784 0.57037 0.44891 -0.68787 0.0034606 
-0.099881 -0.039153 0.839 -0.74955 0.40528 -0.52338 0.001323 
-0.013535 -0.18878 0.748 0.53277 0.19053 -0.82453 0.013087 
-0.11549 -0.065417 0.848 -0.80892 0.31113 -0.49885 0.0094172 
-0.11031 -0.038406 0.858 -0.79105 0.42262 -0.44231 0.00089591 
-0.072411 -0.089966 0.768 -0.36295 0.4984 -0.78731 0.033439 
-0.042351 -0.17982 0.729 0.54701 0.11601 -0.82905 0.017013 
-0.095706 -0.11945 0.779 -0.75763 0.33525 -0.56 0.0046771 
0.011271 -0.14953 0.789 0.54181 0.41316 -0.73194 0.017794 
-0.07254 -0.0195 0.819 -0.37736 0.63572 -0.6734 0.036693 
-0.0407 -0.10138 0.777 0.56776 0.45273 -0.68753 0.0044767 
-0.097111 -0.04974 0.829 -0.75106 0.41637 -0.51239 0.0012565 
-0.11746 -0.079106 0.839 -0.76169 0.45826 -0.45807 0.016935 
3 0 20 15
3 4 19 32
3 33 32 19
3 5 19 4
3 341 5 4
3 341 32 4
3 47 32 33
3 57 47 33
3 49 57 33
3 34 49 33
3 34 19 33
3 537 341 5
3 597 537 341
3 56 57 47
3 58 57 49
3 59 58 49
3 35 59 49
3 35 34 49
3 6 35 34
3 86 57 58
3 66 86 58
3 66 59 58
3 87 86 66
3 88 87 66
3 88 59 66
3 125 86 87
3 89 59 88
3 91 86 125
3 359 91 125
3 7 712 520
3 647 712 520
3 8 734 607
3 304 734 607
3 12 42 22
3 43 42 22
3 13 12 22
3 18 12 42
3 707 42 43
3 683 707 43
3 385 22 13
3 323 385 13
3 701 323 13
3 675 42 707
3 694 675 707
3 14 45 420
3 479 45 420
3 21 121 104
3 123 121 104
3 23 595 24
3 29 533 595
3 29 24 595
3 638 533 29
3 638 24 29
3 30 55 52
3 38 39 62
3 50 62 38
3 61 53 50
3 61 62 50
3 46 186 491
3 155 186 491
3 663 155 491
3 506 186 46
3 402 186 155
3 402 663 155
3 610 186 506
3 54 69 83
3 60 54 83
3 65 719 68
3 380 719 68
3 102 380 68
3 67 93 92
3 70 98 79
3 97 98 70
3 113 126 97
3 113 98 97
3 445 126 113
3 330 126 445
3 664 126 330
3 72 590 78
3 76 173 346
3 111 699 76
3 80 111 76
3 80 173 76
3 207 111 80
3 220 207 80
3 220 173 80
3 77 223 644
3 617 77 223
3 81 367 118
3 84 383 543
3 94 120 129
3 105 483 107
3 462 483 107
3 495 462 483
3 124 122 105
3 124 107 105
3 429 483 495
3 132 124 122
3 116 132 124
3 116 107 124
3 109 467 136
3 115 467 136
3 112 128 119
3 127 128 119
3 114 256 466
3 253 114 256
3 131 669 307
3 134 308 311
3 284 308 311
3 287 284 311
3 670 284 308
3 140 619 157
3 143 321 281
3 319 321 281
3 165 319 321
3 169 165 321
3 144 169 321
3 144 143 321
3 247 144 143
3 201 169 165
3 145 603 574
3 146 172 578
3 726 146 578
3 352 726 578
3 149 502 292
3 150 176 175
3 154 179 178
3 156 381 403
3 160 156 403
3 720 160 156
3 426 160 720
3 162 180 181
3 167 182 185
3 212 469 182
3 212 185 182
3 339 212 469
3 168 316 198
3 418 168 198
3 174 518 711
3 177 472 269
3 731 472 269
3 567 731 269
3 562 567 269
3 562 177 269
3 336 567 731
3 677 336 567
3 540 677 567
3 540 562 567
3 332 731 336
3 501 332 336
3 409 501 336
3 409 677 336
3 446 677 409
3 448 665 446
3 448 677 446
3 440 446 665
3 721 440 665
3 454 721 665
3 331 454 665
3 331 448 665
3 492 721 440
3 460 492 721
3 326 721 454
3 388 326 454
3 484 388 454
3 484 331 454
3 335 484 331
3 335 448 331
3 674 388 326
3 704 326 674
3 559 704 674
3 614 559 704
3 184 732 464
3 334 270 732
3 334 464 732
3 255 464 184
3 313 255 184
3 258 313 184
3 236 258 184
3 236 732 184
3 295 313 255
3 275 258 236
3 241 275 236
3 541 241 236
3 569 541 236
3 569 732 236
3 315 258 275
3 318 315 275
3 318 241 275
3 246 241 541
3 337 732 569
3 189 245 468
3 449 245 468
3 240 449 245
3 213 468 189
3 413 240 449
3 447 413 449
3 447 468 449
3 235 542 240
3 235 413 240
3 668 468 447
3 194 401 306
3 195 349 735
3 197 317 199
3 200 405 489
3 499 226 489
3 499 405 489
3 612 499 405
3 514 499 226
3 514 612 499
3 702 514 612
3 558 514 702
3 204 444 327
3 208 215 411
3 503 215 411
3 441 503 411
3 333 215 503
3 700 333 503
3 700 441 503
3 214 265 227
3 260 265 227
3 280 260 265
3 314 280 260
3 261 314 260
3 257 314 280
3 222 229 249
3 244 229 249
3 244 229 222
3 233 417 252
3 455 254 252
3 455 417 252
3 239 279 264
3 274 279 239
3 242 276 410
3 248 267 250
3 263 633 687
3 266 322 268
3 271 657 450
3 272 605 283
3 273 309 348
3 285 309 273
3 277 282 320
3 288 312 291
3 350 312 291
3 379 312 350
3 294 655 634
3 672 294 655
3 515 634 655
3 662 294 672
3 560 655 515
3 632 560 515
3 632 634 515
3 709 672 662
3 615 632 560
3 661 634 632
3 705 560 615
3 297 626 692
3 565 660 626
3 565 692 626
3 300 671 724
3 519 671 724
3 519 671 300
3 301 678 398
3 373 301 398
3 377 398 373
3 302 620 531
3 646 620 531
3 611 620 302
3 305 690 625
3 608 625 305
3 713 305 608
3 395 713 608
3 354 395 608
3 649 305 713
3 325 673 463
3 328 667 442
3 340 599 551
3 575 599 551
3 536 575 599
3 536 599 340
3 343 372 369
3 365 343 369
3 557 365 369
3 596 365 343
3 477 596 365
3 345 643 725
3 521 725 643
3 538 345 643
3 396 725 345
3 648 725 521
3 416 648 521
3 697 416 521
3 697 643 521
3 598 345 538
3 353 725 396
3 400 416 697
3 347 392 639
3 397 392 347
3 351 730 471
3 357 523 656
3 361 635 532
3 594 361 532
3 688 532 635
3 584 594 361
3 609 584 594
3 729 609 584
3 652 729 584
3 738 652 584
3 738 361 584
3 580 609 729
3 486 652 729
3 507 716 652
3 507 738 652
3 693 507 738
3 684 729 486
3 682 684 486
3 636 682 486
3 708 729 684
3 362 554 366
3 368 556 371
3 374 415 378
3 696 374 415
3 399 679 374
3 399 696 374
3 394 637 679
3 621 394 679
3 621 399 679
3 382 404 384
3 680 382 404
3 680 384 382
3 572 384 680
3 544 384 572
3 630 572 544
3 623 572 630
3 641 623 630
3 386 407 421
3 437 407 421
3 419 490 500
3 430 439 496
3 436 459 703
3 452 577 722
3 482 577 452
3 473 628 733
3 508 586 600
3 510 604 587
3 511 601 527
3 552 601 527
3 512 528 602
3 516 631 654
3 530 593 583
3 571 629 622
3 589 676 616
3 650 727 714
3 651 715 728
